<svg xmlns="http://www.w3.org/2000/svg" viewBox="0 0 49.35 49.34"><title>inst</title><g id="Слой_2" data-name="Слой 2"><g id="Layer_4" data-name="Layer 4"><circle id="_Контур_" data-name="&lt;Контур&gt;" cx="24.67" cy="24.67" r="24.67" fill="#874d2e"/><path d="M33.64,10.06H15.71a5.65,5.65,0,0,0-5.65,5.65V33.64a5.65,5.65,0,0,0,5.65,5.65H33.64a5.66,5.66,0,0,0,5.65-5.65V15.71A5.66,5.66,0,0,0,33.64,10.06Zm1.62,3.37h.64v5l-4.94,0,0-5ZM20.5,21.67a5.13,5.13,0,0,1,8.34,0,5.25,5.25,0,0,1,1,3,5.14,5.14,0,0,1-10.29,0,5.1,5.1,0,0,1,.66-2.51A5.71,5.71,0,0,1,20.5,21.67Zm15.94,12a2.8,2.8,0,0,1-2.8,2.8H15.71a2.8,2.8,0,0,1-2.8-2.8v-12h4.36a8.06,8.06,0,0,0-.59,3A8,8,0,1,0,32.36,22.5a8.25,8.25,0,0,0-.28-.82h4.36v12Z" fill="#fff"/></g></g></svg>