<svg xmlns="http://www.w3.org/2000/svg" viewBox="0 0 49.34 49.35"><title>linkedin</title><g id="Слой_2" data-name="Слой 2"><g id="Layer_4" data-name="Layer 4"><circle id="_Контур_" data-name="&lt;Контур&gt;" cx="24.67" cy="24.67" r="24.67" fill="#2897cf"/><polygon id="_Контур_2" data-name="&lt;Контур&gt;" points="10.69 23.72 10.69 38.03 17.51 38.03 17.51 22.57 17.51 18.55 10.69 18.55 10.69 23.72" fill="#fff"/><circle id="_Контур_3" data-name="&lt;Контур&gt;" cx="14.1" cy="12.22" r="3.41" fill="#fff"/><path id="_Контур_4" data-name="&lt;Контур&gt;" d="M39.77,24.53c-.46-3.67-2.15-6-7.11-6-2.95,0-4.92,1.09-5.73,2.63h-.08V18.55H21.41V38h5.68V28.38c0-2.55.48-5,3.63-5s3.35,2.91,3.35,5.18V38h5.85V27.33h0A22.57,22.57,0,0,0,39.77,24.53Z" fill="#fff"/></g></g></svg>