<svg xmlns="http://www.w3.org/2000/svg" viewBox="0 0 49.34 49.34"><title>youtube</title><g id="Слой_2" data-name="Слой 2"><g id="Layer_4" data-name="Layer 4"><circle id="_Контур_" data-name="&lt;Контур&gt;" cx="24.67" cy="24.67" r="24.67" fill="#f15c4c"/><path d="M39,18.65a6.76,6.76,0,0,0-1.16-3,4.1,4.1,0,0,0-2.93-1.29C30.81,14,24.68,14,24.68,14h0s-6.14,0-10.22.31a4.1,4.1,0,0,0-2.93,1.29,6.8,6.8,0,0,0-1.16,3,48.05,48.05,0,0,0-.29,4.93v2.31a48.13,48.13,0,0,0,.29,4.94,6.78,6.78,0,0,0,1.16,3,4.82,4.82,0,0,0,3.22,1.3c2.34.23,9.94.31,9.94.31s6.14,0,10.23-.32a4.08,4.08,0,0,0,2.93-1.29,6.75,6.75,0,0,0,1.16-3,47.74,47.74,0,0,0,.29-4.93V23.58A47.79,47.79,0,0,0,39,18.65Zm-9.44,5.78L21.66,28.7V20.13l3.56,1.94Z" fill="#fff"/></g></g></svg>